<?xml version="1.0" encoding="utf-8"?>
<!-- Generator: Adobe Illustrator 21.1.0, SVG Export Plug-In . SVG Version: 6.00 Build 0)  -->
<svg version="1.1" id="Слой_1" focusable="false"
	 xmlns="http://www.w3.org/2000/svg" xmlns:xlink="http://www.w3.org/1999/xlink" x="0px" y="0px" viewBox="0 0 64 64"
	 style="enable-background:new 0 0 64 64;" xml:space="preserve">
<style type="text/css">
	.st0{fill:#00FF80;}
</style>
<path class="st0" d="M63.1,21.8l-4.9-4.9c-1.2-1.2-3.1-1.2-4.2,0L24,46.8L10.1,32.9c-1.2-1.2-3.1-1.2-4.2,0l-5,5
	c-1.2,1.2-1.2,3.1,0,4.2l21,21c1.2,1.2,3.1,1.2,4.2,0l37-37C64.3,24.9,64.3,23,63.1,21.8L63.1,21.8z M22.6,35.1c0.8,0.8,2,0.8,2.8,0
	l26-26c0.8-0.8,0.8-2,0-2.8l-5.6-5.7c-0.8-0.8-2-0.8-2.8,0L24,19.5l-6.9-6.9c-0.8-0.8-2-0.8-2.8,0l-5.7,5.7c-0.8,0.8-0.8,2,0,2.8
	L22.6,35.1L22.6,35.1z"/>
</svg>
